HIERARCHY
ROOT Hips
{
	OFFSET	0.00	0.00	0.00
	CHANNELS 6 Xposition Yposition Zposition Zrotation Xrotation Yrotation
	JOINT LeftUpLeg
	{
		OFFSET	 0.126116	-0.014019	-0.065224
		CHANNELS 3 Zrotation Xrotation Yrotation
		JOINT LeftLeg
		{
			OFFSET	 0.000000	 0.000000	 0.569914
			CHANNELS 3 Zrotation Xrotation Yrotation
			JOINT LeftFoot
			{
				OFFSET	 0.000000	 0.000000	 0.544423
				CHANNELS 3 Zrotation Xrotation Yrotation
				JOINT LeftToeBase
				{
					OFFSET	 0.000000	 0.000000	 0.207117
					CHANNELS 3 Zrotation Xrotation Yrotation
					End Site
					{
						OFFSET	 0.000000	 0.000000	 0.207117
					}
				}
			}
		}
	}
	JOINT RightUpLeg
	{
		OFFSET	-0.124023	-0.008373	-0.065224
		CHANNELS 3 Zrotation Xrotation Yrotation
		JOINT RightLeg
		{
			OFFSET	 0.000000	 0.000000	 0.570047
			CHANNELS 3 Zrotation Xrotation Yrotation
			JOINT RightFoot
			{
				OFFSET	 0.000000	 0.000000	 0.544354
				CHANNELS 3 Zrotation Xrotation Yrotation
				JOINT RightToeBase
				{
					OFFSET	 0.000000	 0.000000	 0.207540
					CHANNELS 3 Zrotation Xrotation Yrotation
					End Site
					{
						OFFSET	 0.000000	 0.000000	 0.207540
					}
				}
			}
		}
	}
	JOINT Spine
	{
		OFFSET	 0.000184	-0.007763	 0.117403
		CHANNELS 3 Zrotation Xrotation Yrotation
		JOINT Spine1
		{
			OFFSET	 0.000000	 0.000000	 0.137269
			CHANNELS 3 Zrotation Xrotation Yrotation
			JOINT Spine2
			{
				OFFSET	 0.000000	 0.000000	 0.156879
				CHANNELS 3 Zrotation Xrotation Yrotation
				JOINT LeftShoulder
				{
					OFFSET	 0.080501	-0.002496	 0.160144
					CHANNELS 3 Zrotation Xrotation Yrotation
					JOINT LeftArm
					{
						OFFSET	 0.000000	 0.000000	 0.164363
						CHANNELS 3 Zrotation Xrotation Yrotation
						JOINT LeftForeArm
						{
							OFFSET	 0.000000	 0.000000	 0.364576
							CHANNELS 3 Zrotation Xrotation Yrotation
							JOINT LeftHand
							{
								OFFSET	 0.000000	 0.000000	 0.360812
								CHANNELS 3 Zrotation Xrotation Yrotation
								JOINT LeftHandIndex1
								{
									OFFSET	 0.000000	 0.000000	 0.086006
									CHANNELS 3 Zrotation Xrotation Yrotation
									JOINT LeftHandIndex2
									{
										OFFSET	 0.000000	 0.000000	 0.047237
										CHANNELS 3 Zrotation Xrotation Yrotation
										JOINT LeftHandIndex3
										{
											OFFSET	-0.004284	-0.000551	 0.038165
											CHANNELS 3 Zrotation Xrotation Yrotation
											End Site
											{
												OFFSET	-0.004284	-0.000551	 0.038165
											}
										}
									}
								}
							}
						}
					}
				}
				JOINT Neck
				{
					OFFSET	 0.000000	 0.000000	 0.176489
					CHANNELS 3 Zrotation Xrotation Yrotation
					JOINT Head
					{
						OFFSET	 0.000000	-0.001747	 0.077940
						CHANNELS 3 Zrotation Xrotation Yrotation
						End Site
						{
							OFFSET	 0.000000	-0.001747	 0.077940
						}
					}
				}
				JOINT RightShoulder
				{
					OFFSET	-0.080363	 0.000306	 0.159706
					CHANNELS 3 Zrotation Xrotation Yrotation
					JOINT RightArm
					{
						OFFSET	 0.000000	 0.000000	 0.164196
						CHANNELS 3 Zrotation Xrotation Yrotation
						JOINT RightForeArm
						{
							OFFSET	 0.000000	 0.000000	 0.365611
							CHANNELS 3 Zrotation Xrotation Yrotation
							JOINT RightHand
							{
								OFFSET	 0.000000	 0.000000	 0.360648
								CHANNELS 3 Zrotation Xrotation Yrotation
								JOINT RightHandIndex1
								{
									OFFSET	 0.000000	 0.000000	 0.069977
									CHANNELS 3 Zrotation Xrotation Yrotation
									JOINT RightHandIndex2
									{
										OFFSET	 0.000000	 0.000000	 0.052305
										CHANNELS 3 Zrotation Xrotation Yrotation
										JOINT RightHandIndex3
										{
											OFFSET	 0.009002	-0.000782	 0.042196
											CHANNELS 3 Zrotation Xrotation Yrotation
											End Site
											{
												OFFSET	 0.009002	-0.000782	 0.042196
											}
										}
									}
								}
							}
						}
					}
				}
			}
		}
	}
}
MOTION
Frames:    6
Frame Time: 0.03333334
-0.640928	-0.128109	 1.252467	-159.171200	 9.622203	 8.592651	-23.627850	-10.184150	 170.364400	-9.245444	-31.593120	-3.835892	 128.728900	 88.568240	-133.554900	-2.385833	 28.452760	 0.000004	 57.120500	-46.531710	-164.332500	-31.610090	-59.168710	-17.985280	 30.128810	 35.409330	-39.863030	 2.384659	 28.388700	-0.000001	 23.909850	-20.668630	-13.266290	 44.997960	 27.814300	 0.303934	-4.069803	-4.672246	-5.260424	-91.776150	 78.527360	 180.000000	 26.443530	 56.551530	-36.150790	-8.474288	-6.281466	-43.513360	 7.422170	-3.576865	-4.071684	-4.131196	 21.524690	 0.986298	-5.167839	 0.733520	 3.519257	-1.378229	 35.397820	-2.634230	-14.219510	 16.471710	-7.178870	-24.953500	 3.867690	 5.329582	 89.782070	 78.203890	-180.000000	 2.301785	 66.257930	-6.568447	-3.082229	-6.417854	 21.412500	 95.477600	-26.179910	-0.105758	 5.715225	 19.176060	-3.692089	 5.027514	 0.245388	-9.378011	-2.350882	 35.473990	 5.254307
-0.639462	-0.126193	 1.253272	-160.023600	 9.689770	 9.449410	-22.270770	-9.952988	 169.499100	-8.782909	-31.689490	-3.600658	 131.827200	 85.226360	-137.663800	-2.385833	 28.452760	 0.000004	 57.994440	-46.799650	-164.539800	-23.772060	-59.576190	-11.147150	 51.068260	 49.160990	-50.728440	 2.384659	 28.388700	-0.000001	 23.314720	-22.837480	-15.312260	 45.988090	 30.841050	-0.753874	-4.073408	-5.615004	-5.132535	-91.776220	 78.527420	-180.000000	 26.887550	 56.205580	-36.529280	-7.840821	-6.830106	-43.241160	 8.505072	-2.838877	-4.440239	-4.131196	 21.524690	 0.986298	-5.167839	 0.733520	 3.519257	-1.378229	 35.397820	-2.634230	-14.007360	 16.260250	-7.777116	-25.095570	 3.527972	 5.048692	 89.782140	 78.203900	 180.000000	 2.889781	 66.148350	-6.844794	-4.327290	-6.838871	 21.094060	 94.612010	-25.044380	 2.057204	 5.715225	 19.176060	-3.692089	 5.027514	 0.245388	-9.378011	-2.350882	 35.473990	 5.254307
-0.636509	-0.123898	 1.253469	-161.689700	 10.195190	 9.953432	-19.578710	-10.306510	 168.857400	-7.706089	-31.536970	-3.016981	 145.543900	 82.702060	-152.316600	-2.385833	 28.452760	 0.000004	 55.612460	-48.122130	-165.094600	-19.213020	-59.074970	-7.144193	 57.163890	 54.028150	-53.846080	 2.384659	 28.388700	-0.000001	 24.702520	-22.906560	-15.884820	 45.665520	 30.502000	 1.171478	-4.037260	-5.019901	-5.775837	-91.776200	 78.527350	-180.000000	 26.600470	 55.966390	-36.231910	-7.148025	-7.504222	-43.263790	 9.140133	-2.469547	-4.719332	-4.131196	 21.524690	 0.986298	-5.167839	 0.733520	 3.519257	-1.378229	 35.397820	-2.634230	-14.005830	 16.579210	-7.702071	-25.017540	 3.209888	 4.721514	 89.782070	 78.203830	-180.000000	 2.984712	 66.243260	-6.192189	-6.069781	-7.192647	 20.089940	 92.230060	-25.556390	 3.356242	 5.715225	 19.176060	-3.692089	 5.027514	 0.245388	-9.378011	-2.350882	 35.473990	 5.254307
-0.630028	-0.117728	 1.253742	-162.112300	 11.031500	 8.221318	-17.609780	-9.948940	 170.268700	-5.329655	-28.495890	-1.612846	 136.340400	 75.372530	-144.953500	-2.385833	 28.452760	 0.000004	 60.625260	-45.918220	-161.524700	-18.245130	-59.526430	-6.339170	 73.971030	 57.159040	-66.916920	 2.384659	 28.388700	-0.000001	 25.776110	-23.978510	-13.278060	 45.893980	 32.072500	 0.282684	-3.935790	-5.734790	-6.315766	-91.776150	 78.527420	 180.000000	 26.598920	 55.802700	-36.752600	-6.428371	-7.907626	-42.225520	 9.769701	-2.033477	-5.027603	-4.131196	 21.524690	 0.986298	-5.167839	 0.733520	 3.519257	-1.378229	 35.397820	-2.634230	-13.641900	 17.138830	-8.016227	-24.875270	 3.357592	 6.034701	 89.782140	 78.203930	 179.999900	 1.438309	 66.030670	-4.162504	-7.423628	-7.764813	 20.112550	 89.801410	-25.642840	 5.462486	 5.715225	 19.176060	-3.692089	 5.027514	 0.245388	-9.378011	-2.350882	 35.473990	 5.254307
-0.621125	-0.110376	 1.253366	-161.719700	 10.416550	 6.479509	-18.034440	-7.496182	 172.101400	-3.504311	-25.249650	-0.662262	 130.085500	 73.036980	-139.843000	-2.385833	 28.452760	 0.000004	 62.546590	-42.703240	-161.103500	-17.747120	-59.629720	-5.914443	 82.667250	 59.590990	-72.399970	 2.384659	 28.388700	-0.000001	 26.890720	-22.073710	-10.259720	 45.191910	 30.970880	-1.125596	-3.545159	-5.746936	-5.349957	-91.776150	 78.527420	 180.000000	 26.586240	 55.413890	-36.976720	-6.027545	-8.120696	-41.662570	 10.214780	-1.674022	-5.270576	-4.131196	 21.524690	 0.986298	-5.167839	 0.733520	 3.519257	-1.378229	 35.397820	-2.634230	-13.058080	 17.084160	-8.789219	-24.894020	 3.940278	 8.107430	 89.782100	 78.203890	 180.000000	-1.388635	 65.919440	-0.824533	-7.379056	-7.723873	 20.059890	 88.576110	-30.004180	 8.840082	 5.715225	 19.176060	-3.692089	 5.027514	 0.245388	-9.378011	-2.350882	 35.473990	 5.254307
-0.607867	-0.098874	 1.253032	-161.828700	 10.261700	 7.688081	-12.970860	-6.413679	 170.044200	-7.760698	-24.789030	-2.442305	 119.834200	 75.594880	-126.910500	-2.385833	 28.452760	 0.000004	 62.245410	-41.751270	-163.123400	-17.488960	-57.626810	-5.571647	 84.751790	 60.698140	-73.372870	 2.384659	 28.388700	-0.000001	 26.152740	-22.180270	-11.728580	 45.524930	 30.835780	-1.398382	-3.339186	-5.337784	-5.156597	-91.776150	 78.527400	 180.000000	 27.332940	 54.914900	-37.683600	-5.845084	-8.148225	-41.178940	 10.312360	-1.422549	-5.444982	-4.131196	 21.524690	 0.986298	-5.167839	 0.733520	 3.519257	-1.378229	 35.397820	-2.634230	-12.683640	 17.282200	-9.369119	-24.953320	 3.608749	 8.997491	 89.782130	 78.203920	 180.000000	-3.315932	 65.494730	 1.665831	-4.363086	-6.707591	 20.683620	 92.507810	-37.337360	 15.221140	 5.715225	 19.176060	-3.692089	 5.027514	 0.245388	-9.378011	-2.350882	 35.473990	 5.254307
